<?xml version="1.0" encoding="utf-8"?>
<!-- Generator: Adobe Illustrator 15.1.0, SVG Export Plug-In . SVG Version: 6.00 Build 0)  -->
<!DOCTYPE svg PUBLIC "-//W3C//DTD SVG 1.1//EN" "http://www.w3.org/Graphics/SVG/1.1/DTD/svg11.dtd">
<svg version="1.1" id="Calque_1" xmlns="http://www.w3.org/2000/svg" xmlns:xlink="http://www.w3.org/1999/xlink" x="0px" y="0px"
	 width="10px" height="10px" viewBox="0 0 10 10" enable-background="new 0 0 10 10" xml:space="preserve">
<g>
	<rect x="8.889" fill="#111111" width="1.111" height="1.111"/>
	<rect x="8.889" y="8.889" fill="#111111" width="1.111" height="1.111"/>
	<rect fill="#111111" width="1.111" height="1.111"/>
	<rect y="8.889" fill="#111111" width="1.111" height="1.111"/>
	<rect y="4.444" fill="#111111" width="2.222" height="1.111"/>
	<rect x="7.778" y="4.444" fill="#111111" width="2.222" height="1.111"/>
	<rect x="4.444" y="7.778" fill="#111111" width="1.111" height="2.222"/>
	<rect x="4.444" fill="#111111" width="1.111" height="2.222"/>
	<rect x="5.556" y="2.222" fill="#111111" width="1.111" height="1.111"/>
	<rect x="5.556" y="6.667" fill="#111111" width="1.111" height="1.111"/>
	<rect x="6.667" y="5.556" fill="#111111" width="1.111" height="1.111"/>
	<rect x="6.667" y="3.333" fill="#111111" width="1.111" height="1.111"/>
	<rect x="3.333" y="2.222" fill="#111111" width="1.111" height="1.111"/>
	<rect x="3.333" y="6.667" fill="#111111" width="1.111" height="1.111"/>
	<rect x="2.222" y="5.556" fill="#111111" width="1.111" height="1.111"/>
	<rect x="2.222" y="3.333" fill="#111111" width="1.111" height="1.111"/>
</g>
</svg>
